<svg width="16" height="16" viewBox="0 0 20 20" fill="currentColor" xmlns="http://www.w3.org/2000/svg" class="shrink-0"><path fill-rule="evenodd" clip-rule="evenodd" d="M3.55841 13.247C3.56004 13.1767 3.56367 13.1016 3.56814 13.0265C3.58038 12.8211 3.60348 12.5545 3.63891 12.2416C3.70982 11.6154 3.83126 10.7937 4.01819 9.8908C4.38909 8.09943 5.02961 5.92916 6.08397 4.34762C6.74831 3.35112 7.61943 2.5219 8.52309 1.93915C9.41892 1.36145 10.3881 0.999975 11.25 0.999975C12.0996 0.999975 12.6668 1.3031 13.0362 1.68235C13.1431 1.79205 13.2319 1.90828 13.3047 2.01848C13.7489 1.73316 14.3276 1.41482 14.9254 1.20105C15.3496 1.04935 15.8123 0.93969 16.2588 0.94931C16.713 0.959095 17.1766 1.09446 17.5411 1.45892C17.9234 1.84122 18.025 2.32827 17.9801 2.79047C17.9365 3.23983 17.7546 3.69434 17.5321 4.09985C17.1983 4.70836 16.7265 5.28918 16.3099 5.69186C16.463 5.93625 16.5946 6.23735 16.6498 6.5759C16.7482 7.1804 16.5938 7.86331 15.9786 8.47854C15.3739 9.08321 14.4222 9.42064 13.5622 9.61294C13.0891 9.71874 12.6154 9.78655 12.1928 9.82663C12.3414 10.2749 12.328 10.837 12.0097 11.4736C11.6993 12.0943 11.1358 12.4468 10.5203 12.663C9.91023 12.8774 9.1849 12.9806 8.46064 13.0611C8.24919 13.0846 8.03779 13.1062 7.82669 13.1277C7.29434 13.1821 6.7637 13.2363 6.23905 13.3205C5.54406 13.432 4.90462 13.5903 4.36135 13.848C3.76118 14.7972 3.25719 15.7183 2.85552 16.5469C3.44712 16.2182 4.15842 16 5 16C5.27614 16 5.5 16.2239 5.5 16.5C5.5 16.7761 5.27614 17 5 17C3.48663 17 2.49746 17.909 1.92177 18.7688C1.90079 18.8017 1.87625 18.8317 1.84885 18.8583C1.795 18.9109 1.731 18.9494 1.66228 18.973C1.59358 18.9966 1.51939 19.0054 1.44463 18.997C1.38858 18.9908 1.33298 18.9751 1.2803 18.9492C1.22755 18.9235 1.18096 18.8893 1.14166 18.8489C1.08941 18.7953 1.05098 18.7317 1.02742 18.6634C1.00348 18.5943 0.994505 18.5197 1.00299 18.4444C1.00723 18.4063 1.01589 18.3684 1.02916 18.3314C1.44851 17.0773 2.30911 15.211 3.55841 13.247ZM13.425 3.14998C13.8166 2.85627 14.5377 2.4017 15.2621 2.14265C15.6244 2.0131 15.9585 1.94307 16.2373 1.94908C16.5083 1.95492 16.6984 2.03049 16.834 2.16603C16.9517 2.28373 17.0089 2.44512 16.9848 2.69386C16.9594 2.95544 16.8444 3.27437 16.6554 3.61886C16.2757 4.311 15.6807 4.9582 15.325 5.22498C15.209 5.31195 15.1365 5.44496 15.1263 5.58954C15.116 5.73412 15.169 5.87605 15.2714 5.97854C15.4232 6.13029 15.6103 6.41423 15.6627 6.73657C15.7102 7.0279 15.6562 7.38666 15.2714 7.77143C14.8761 8.16676 14.1611 8.45433 13.344 8.63703C12.5462 8.81543 11.7395 8.87498 11.25 8.87498C11.0181 8.87498 10.8167 9.03442 10.7634 9.2601C10.7101 9.48577 10.819 9.71847 11.0264 9.82219C11.0245 9.82089 11.0247 9.82136 11.0264 9.82219C11.0334 9.82712 11.0645 9.84914 11.105 9.89551C11.1521 9.94938 11.2013 10.0244 11.2361 10.1195C11.3003 10.2953 11.3335 10.59 11.1153 11.0264C10.9662 11.3245 10.675 11.5488 10.1888 11.7196C9.69705 11.8924 9.07356 11.9868 8.35018 12.0672C8.15766 12.0886 7.95768 12.109 7.75306 12.1299C7.21061 12.1853 6.63559 12.2441 6.08063 12.3331C5.81261 12.3761 5.5432 12.427 5.27669 12.4896C5.36362 12.3684 5.45203 12.2473 5.54192 12.1264C7.38391 9.64816 9.80795 7.28835 12.6923 6.08654C12.9472 5.98033 13.0677 5.68759 12.9615 5.43269C12.8553 5.17779 12.5626 5.05725 12.3077 5.16346C9.1935 6.46104 6.6393 8.9745 4.74198 11.5263C4.80709 11.0917 4.89126 10.6063 4.99743 10.0935C5.3609 8.33802 5.97038 6.32078 6.91602 4.90232C7.50169 4.02383 8.27266 3.29055 9.06505 2.77955C9.86527 2.2635 10.6461 1.99998 11.25 1.99998C11.8337 1.99998 12.1414 2.19686 12.3199 2.38012C12.48 2.54445 12.5536 2.70546 12.622 2.85524C12.6405 2.89556 12.6585 2.93506 12.6778 2.9736C12.7441 3.1062 12.8658 3.20254 13.0101 3.2366C13.1544 3.27066 13.3064 3.23893 13.425 3.14998Z"></path><path fill-rule="evenodd" clip-rule="evenodd" d="M18.6967 16.0403C18.9506 16.149 19.0683 16.4429 18.9597 16.6967C18.4068 17.9885 17.3901 19 16.1 19C15.1105 19 14.2819 18.405 13.7 17.5449C13.1181 18.405 12.2895 19 11.3 19C10.3105 19 9.4819 18.405 8.9 17.5449C8.31811 18.405 7.48948 19 6.5 19C6.22386 19 6 18.7761 6 18.5C6 18.2239 6.22386 18 6.5 18C7.21338 18 7.96129 17.4225 8.44034 16.3033C8.51907 16.1193 8.6999 16 8.9 16C9.10011 16 9.28094 16.1193 9.35967 16.3033C9.83872 17.4225 10.5866 18 11.3 18C12.0134 18 12.7613 17.4225 13.2403 16.3033C13.3191 16.1193 13.4999 16 13.7 16C13.9001 16 14.0809 16.1193 14.1597 16.3033C14.6387 17.4225 15.3866 18 16.1 18C16.8134 18 17.5613 17.4225 18.0403 16.3033C18.149 16.0494 18.4429 15.9317 18.6967 16.0403Z"></path></svg>
